<?xml version="1.0" encoding="UTF-8"?>
<svg width="56px" height="55px" viewBox="0 0 56 55" version="1.1" xmlns="http://www.w3.org/2000/svg" xmlns:xlink="http://www.w3.org/1999/xlink">
    <title>brightcove</title>
    <g id="Page-1" stroke="none" stroke-width="1" fill="none" fill-rule="evenodd">
        <g id="brightcove">
            <path d="M38.3863535,28.2535215 L38.3863535,28.2535215 L38.3462905,28.5868758 L38.2397079,28.8801672 L35.6957078,33.2934838 L32.7170239,38.4401799 L32.7170239,38.4401799 L32.4838271,38.8268256 L32.1931814,39.1469516 L31.8704097,39.4402429 L31.5381892,39.6670146 L31.1115562,39.8669516 L30.731525,40.0003689 L30.2635439,40.1069516 L29.8355502,40.1470146 L18.7782009,40.1470146 L18.7782009,40.1470146 L18.5434922,40.1069516 L18.3102953,40.0536603 L18.1156497,39.9070146 L17.9304528,39.7735973 L17.784941,39.6269516 L17.688941,39.3869516 L17.5997441,39.1469516 L17.5997441,38.9069516 L17.5997441,38.9069516 L17.5997441,38.6268886 L17.736941,38.3468256 L20.6182639,33.2934838 L23.2169537,28.7334837 L23.2169537,28.7334837 L23.4595994,28.4001294 L23.742308,28.066775 L24.0730167,27.786712 L24.4516914,27.506649 L24.8235969,27.3199404 L25.2515906,27.1732947 L25.6795843,27.0799404 L26.1475654,27.0799404 L37.2049129,27.0799404 L37.2049129,27.0799404 L37.4528499,27.0799404 L37.6263302,27.1732947 L37.8663264,27.266649 L38.0129721,27.4000663 L38.1996808,27.6000034 L38.2930351,27.786712 L38.3463264,28.026712 L38.3863535,28.2535215 Z M38.3863535,24.373534 L38.3863535,24.373534 L38.3462905,24.0401797 L38.2397079,23.7468883 L35.6957116,19.3201922 L32.7170277,14.1468882 L32.7170277,14.1468882 L32.4838308,13.8135338 L32.1931852,13.4801795 L31.8704135,13.1868881 L31.538193,12.9468881 L31.1115599,12.7601795 L30.7315288,12.6135338 L30.2635477,12.5201795 L29.835554,12.4801165 L18.7782009,12.4801165 L18.7782009,12.4801165 L18.5434922,12.5201795 L18.3102953,12.5734708 L18.1156497,12.6668251 L17.9304528,12.8002425 L17.784941,13.0001795 L17.688941,13.2401795 L17.5997441,13.4268882 L17.5997441,13.6668882 L17.5997441,13.6668882 L17.5997441,14.0002425 L17.736941,14.2803055 L20.6182639,19.3203056 L23.2169537,23.8936474 L23.2169537,23.8936474 L23.4595994,24.2270017 L23.742308,24.5603561 L24.0730167,24.8404191 L24.4516914,25.0804191 L24.8235969,25.2671277 L25.2515906,25.4137734 L25.6795843,25.5071277 L26.1475654,25.5471907 L37.2049129,25.5471907 L37.2049129,25.5471907 L37.4528499,25.5071277 L37.6263302,25.4538364 L37.8663264,25.3604821 L38.0129721,25.2138364 L38.1996808,25.0271277 L38.2930351,24.8404191 L38.3463264,24.6136474 L38.3863535,24.373534 Z" id="blue" fill="#94C039"></path>
            <path d="M55.3463412,28.2135341 L55.3463412,28.2135341 L55.3062782,28.5468884 L55.1596326,28.8401798 L52.6396325,33.2668381 L49.6529364,38.4134965 L49.6529364,38.4134965 L49.4129364,38.8001799 L49.1328734,39.1335343 L48.7995191,39.4135973 L48.4661647,39.6535973 L48.0261521,39.8535343 L47.612823,39.9869516 L47.1861521,40.0935343 L46.7061521,40.1335973 L35.6408294,40.1335973 L35.6408294,40.1335973 L35.3981838,40.0935343 L35.1619633,40.0402429 L34.9673176,39.8935973 L34.780609,39.76018 L34.6434121,39.6135343 L34.4967664,39.3735343 L34.4487664,39.1335343 L34.3996363,38.8935343 L34.3996363,38.8935343 L34.4487664,38.6002429 L34.5942782,38.3201799 L37.4929492,33.2668381 L40.1062654,28.6934963 L40.1062654,28.6934963 L40.333037,28.360142 L40.6263284,28.0267876 L40.9596827,27.7467246 L41.3331,27.4666616 L41.7197835,27.279953 L42.1464166,27.1333073 L42.5730875,27.039953 L43.0530875,27.039953 L54.1064294,27.039953 L54.1064294,27.039953 L54.3997207,27.039953 L54.5864294,27.1333073 L54.8264294,27.2266616 L54.9730751,27.3600789 L55.1064924,27.560016 L55.2531381,27.7467246 L55.3064294,27.9867246 L55.3463412,28.2135341 Z M34.3997085,42.8401926 L34.3997085,42.8401926 L34.4488386,43.1334839 L34.5943504,43.4267753 L37.1103446,47.8534336 L40.1063372,53.0400794 L40.1063372,53.0400794 L40.3331088,53.4267629 L40.6264002,53.7068259 L40.9597545,54.0001172 L41.3331718,54.2934086 L41.7198553,54.4801172 L42.1464884,54.6135345 L42.5731593,54.7068889 L43.0531593,54.7068889 L54.1065012,54.7068889 L54.1065012,54.7068889 L54.3997925,54.7068889 L54.5865012,54.6135345 L54.8265012,54.5201802 L54.9731469,54.3735345 L55.1065642,54.1868259 L55.2532099,54.0001172 L55.3065012,53.7601172 L55.3465642,53.5201172 L55.3465642,53.5201172 L55.3065012,53.1867629 L55.1598555,52.9467629 L52.2665138,47.8534336 L49.6531594,43.3200792 L49.6531594,43.3200792 L49.4131594,42.9466619 L49.1330964,42.6133076 L48.7997421,42.3200162 L48.4663877,42.0932446 L48.0263751,41.9065359 L47.613046,41.7598902 L47.1863751,41.6533075 L46.7063751,41.6132446 L35.6410566,41.6132446 L35.6410566,41.6132446 L35.3984109,41.6533075 L35.1621904,41.7065989 L34.9675448,41.8532446 L34.7808361,41.9866619 L34.6436393,42.1865989 L34.4969936,42.3733076 L34.4489936,42.6133076 L34.3997085,42.8401926 Z" id="green" fill="#D4247B"></path>
            <path d="M16.4463457,15.1068882 L21.9610167,24.7468758 L21.9610167,24.7468758 L22.1556623,25.1202931 L22.294371,25.5602679 L22.3915049,26.0402679 L22.3915049,26.4669388 L22.3915049,26.8802679 L22.294371,27.3202805 L22.1556623,27.7336097 L21.9610167,28.1202931 L19.2970166,32.6269641 L16.3970229,37.6669642 L16.3970229,37.6669642 L16.2103142,37.8937358 L15.9264717,38.0804445 L15.9264717,38.0804445 L15.739763,38.1870272 L15.5039205,38.2270902 L15.2612748,38.2270902 L15.0254323,38.1870272 L14.8307866,38.1337358 L14.5945661,38.0003185 L14.4573693,37.8536728 L14.3107236,37.6669642 L8.79605266,28.0269388 L8.79605266,28.0269388 L8.56021013,27.586964 L8.41469832,27.1735971 L8.37350147,26.746964 L8.32550147,26.3202931 L8.37350147,25.853597 L8.46269832,25.4136222 L8.60934399,25.0402049 L8.79605266,24.6535214 L11.793407,19.4668757 L14.3600843,15.1068882 L14.3600843,15.1068882 L14.5467929,14.8135968 L14.7815016,14.6268882 L14.7815016,14.6268882 L15.0256591,14.5335338 L15.2615016,14.4802425 L15.5041473,14.4802425 L15.6919898,14.5335338 L15.9266985,14.6268882 L16.1134071,14.7334709 L16.3080528,14.9201795 L16.4463457,15.1068882 Z M6.46502899,0.133533588 L6.46502899,0.133533588 L6.22918647,0.3334706 L6.0345408,0.573470604 L3.46786359,4.98678722 L0.470546999,10.1201416 L0.470546999,10.1201416 L0.283838334,10.5468125 L0.138704474,10.9202298 L0.0495076216,11.3602424 L-4.19034011e-06,11.7869133 L0.0495076216,12.2535716 L0.138704474,12.6802425 L0.283838334,13.1069133 L0.470546999,13.5469259 L5.98521796,23.1335844 L5.98521796,23.1335844 L6.13186363,23.3735844 L6.3185723,23.5070017 L6.51321797,23.6536474 L6.70786364,23.7069387 L6.94408412,23.7470017 L7.17992664,23.7470017 L7.41463531,23.7069387 L7.65047783,23.6135844 L7.65047783,23.6135844 L7.89463532,23.4268757 L8.08134398,23.1868757 L10.9813377,18.1468756 L13.6453378,13.6402047 L13.6453378,13.6402047 L13.8399835,13.2001921 L13.9771803,12.8267748 L14.0746921,12.4001039 L14.0746921,11.973433 L14.0746921,11.493433 L13.9771803,11.0667621 L13.8399835,10.6400913 L13.6453378,10.2134204 L8.12934398,0.613420211 L8.12934398,0.613420211 L7.99214713,0.386648553 L7.79750146,0.240002882 L7.60285579,0.0933572097 L7.36701326,0.0532942169 L7.1803046,2.87737665e-06 L6.94446207,2.87737665e-06 L6.7082416,0.0532942169 L6.46502899,0.133533588 Z" id="pink" fill="#069BB3"></path>
        </g>
    </g>
</svg>